<svg width="66" height="66" viewBox="0 0 66 66" fill="none" xmlns="http://www.w3.org/2000/svg">
<path d="M33 66C51.2254 66 66 51.2254 66 33C66 14.7746 51.2254 0 33 0C14.7746 0 0 14.7746 0 33C0 51.2254 14.7746 66 33 66Z" fill="#EC4235"/>
<path fill-rule="evenodd" clip-rule="evenodd" d="M26.785 24.641L16.734 30.441C16.4073 30.6292 16.1211 30.8801 15.8919 31.1794C15.6627 31.4786 15.4949 31.8203 15.3984 32.1847C15.3018 32.5491 15.2783 32.929 15.3292 33.3025C15.3801 33.676 15.5044 34.0358 15.695 34.361C15.8831 34.6877 16.1341 34.9738 16.4333 35.2031C16.7326 35.4323 17.0743 35.6 17.4387 35.6966C17.8031 35.7932 18.1829 35.8167 18.5565 35.7658C18.93 35.7149 19.2897 35.5906 19.615 35.4L29.666 29.6C29.9926 29.4119 30.2788 29.1609 30.508 28.8616C30.7373 28.5624 30.905 28.2207 31.0016 27.8563C31.0982 27.4919 31.1217 27.112 31.0708 26.7385C31.0199 26.365 30.8956 26.0052 30.705 25.68C30.5176 25.3525 30.267 25.0656 29.9679 24.8357C29.6687 24.6059 29.3268 24.4378 28.9622 24.3411C28.5975 24.2445 28.2172 24.2212 27.8435 24.2727C27.4697 24.3242 27.1099 24.4494 26.785 24.641Z" fill="white"/>
<path fill-rule="evenodd" clip-rule="evenodd" d="M29.6 36.3L19.549 30.5C19.224 30.3084 18.8642 30.1832 18.4905 30.1317C18.1167 30.0802 17.7365 30.1035 17.3718 30.2001C17.0071 30.2968 16.6653 30.4649 16.3661 30.6948C16.0669 30.9246 15.8164 31.2116 15.629 31.539C15.4373 31.864 15.3121 32.2238 15.2607 32.5975C15.2092 32.9713 15.2324 33.3515 15.3291 33.7162C15.4258 34.0809 15.5939 34.4227 15.8237 34.7219C16.0536 35.0211 16.3405 35.2716 16.668 35.459L26.719 41.259C27.0439 41.4507 27.4037 41.5759 27.7775 41.6273C28.1512 41.6788 28.5315 41.6555 28.8962 41.5589C29.2608 41.4622 29.6027 41.2941 29.9019 41.0643C30.201 40.8344 30.4516 40.5475 30.639 40.22C30.8306 39.895 30.9558 39.5352 31.0073 39.1615C31.0588 38.7878 31.0355 38.4075 30.9389 38.0428C30.8422 37.6782 30.6741 37.3363 30.4442 37.0371C30.2144 36.7379 29.9274 36.4874 29.6 36.3Z" fill="white"/>
<path fill-rule="evenodd" clip-rule="evenodd" d="M36.3 36.4L46.351 30.6C46.6759 30.4083 47.0357 30.2831 47.4095 30.2317C47.7832 30.1802 48.1635 30.2034 48.5282 30.3001C48.8928 30.3968 49.2347 30.5649 49.5339 30.7947C49.833 31.0246 50.0836 31.3115 50.271 31.639C50.4626 31.964 50.5878 32.3238 50.6393 32.6975C50.6908 33.0712 50.6675 33.4515 50.5709 33.8162C50.4742 34.1808 50.3061 34.5227 50.0762 34.8219C49.8464 35.1211 49.5594 35.3716 49.232 35.559L39.181 41.359C38.856 41.5506 38.4962 41.6758 38.1225 41.7273C37.7487 41.7788 37.3685 41.7555 37.0038 41.6589C36.6391 41.5622 36.2973 41.3941 35.9981 41.1642C35.6989 40.9344 35.4484 40.6474 35.261 40.32C35.0693 39.995 34.9441 39.6352 34.8927 39.2615C34.8412 38.8877 34.8644 38.5075 34.9611 38.1428C35.0578 37.7781 35.2259 37.4363 35.4557 37.1371C35.6856 36.8379 35.9725 36.5874 36.3 36.4Z" fill="white"/>
<path fill-rule="evenodd" clip-rule="evenodd" d="M39.282 24.742L49.333 30.542C49.6596 30.7302 49.9458 30.9811 50.175 31.2804C50.4043 31.5796 50.572 31.9213 50.6686 32.2857C50.7652 32.6501 50.7887 33.03 50.7378 33.4035C50.6869 33.777 50.5626 34.1368 50.372 34.462C50.1838 34.7887 49.9329 35.0749 49.6336 35.3041C49.3343 35.5333 48.9927 35.701 48.6283 35.7976C48.2639 35.8942 47.884 35.9177 47.5105 35.8668C47.137 35.8159 46.7772 35.6916 46.452 35.501L36.401 29.701C36.0743 29.5128 35.7881 29.2619 35.5589 28.9626C35.3297 28.6634 35.1619 28.3217 35.0654 27.9573C34.9688 27.5929 34.9453 27.213 34.9962 26.8395C35.0471 26.466 35.1714 26.1063 35.362 25.781C35.5494 25.4536 35.7999 25.1666 36.0991 24.9368C36.3983 24.7069 36.7401 24.5388 37.1048 24.4421C37.4695 24.3455 37.8497 24.3222 38.2235 24.3737C38.5972 24.4252 38.957 24.5504 39.282 24.742Z" fill="white"/>
</svg>
